simulation
nRows=56
nColumns=15
endheader
time  TH_x TH_y TH_z SC_y  SC_z  SC_x  AC_y  AC_z  AC_x  GH_y  GH_z  GH_yy  EL_x  PS_y
0.000000  0.000000  0.000000  0.000000  -23.887524  4.822890  -1.869435  57.532599  14.822624  3.500841  44.972610  11.939504  11.510413  17.601941  77.124999
0.028283  0.000000  0.000000  0.000000  -23.785510  4.833540  -1.854366  57.471240  14.822290  3.430153  45.294848  11.957845  10.989202  17.671039  77.422776
0.056566  0.000000  0.000000  0.000000  -23.709893  4.839851  -1.919545  57.419153  14.807304  3.404638  45.393632  11.991073  10.860118  17.650447  77.521487
0.084848  0.000000  0.000000  0.000000  -23.659135  4.840782  -2.021282  57.381570  14.758799  3.398620  45.315583  12.054128  11.029359  17.547358  77.477161
0.113131  0.000000  0.000000  0.000000  -23.631696  4.835290  -2.161941  57.357178  14.696740  3.412034  45.107326  12.161950  11.403124  17.368962  77.345826
0.141414  0.000000  0.000000  0.000000  -23.626040  4.822335  -2.318888  57.348189  14.620057  3.430852  44.815483  12.329478  11.887611  17.122452  77.183509
0.169697  0.000000  0.000000  0.000000  -23.640627  4.800875  -2.524146  57.349090  14.573690  3.471517  44.486677  12.571653  12.389019  16.815019  77.046237
0.197980  0.000000  0.000000  0.000000  -23.673920  4.769869  -2.714999  57.367657  14.522854  3.497570  44.167531  12.903415  12.813545  16.453854  76.990039
0.226263  0.000000  0.000000  0.000000  -23.724380  4.728274  -2.943999  57.395451  14.529797  3.536824  43.904668  13.339702  13.067388  16.046150  77.070941
0.254545  0.000000  0.000000  0.000000  -23.790469  4.675050  -3.152446  57.439544  14.563120  3.555028  43.744711  13.895456  13.056747  15.599097  77.344972
0.282828  0.000000  0.000000  0.000000  -23.870648  4.609154  -3.354189  57.496806  14.652515  3.558359  43.734282  14.585616  12.687821  15.119888  77.868158
0.311111  0.000000  0.000000  0.000000  -23.963255  4.529721  -3.534440  57.568159  14.802832  3.537347  43.915985  15.424616  11.874145  14.616099  78.690524
0.339394  0.000000  0.000000  0.000000  -24.064614  4.438740  -3.689574  57.654584  15.016601  3.493542  44.266955  16.418660  10.648780  14.101572  79.764304
0.367677  0.000000  0.000000  0.000000  -24.169409  4.340521  -3.815447  57.758519  15.286362  3.432115  44.711064  17.567251  9.142021  13.595245  80.962174
0.395960  0.000000  0.000000  0.000000  -24.272274  4.239442  -3.908329  57.882470  15.604718  3.358567  45.170638  18.869700  7.486990  13.116207  82.154504
0.424242  0.000000  0.000000  0.000000  -24.367846  4.139882  -3.964578  58.029034  15.964329  3.278429  45.568004  20.325318  5.816806  12.683544  83.211661
0.452525  0.000000  0.000000  0.000000  -24.450663  4.046234  -3.980756  58.200684  16.357967  3.197151  45.826552  21.933181  4.262931  12.316080  84.005870
0.480808  0.000000  0.000000  0.000000  -24.510576  3.963567  -3.954174  58.389780  16.777372  3.112168  45.919910  23.681300  2.878489  12.020122  84.497179
0.509091  0.000000  0.000000  0.000000  -24.530825  3.897905  -3.882107  58.574431  17.211881  3.009250  45.892644  25.542065  1.605994  11.784312  84.769626
0.537374  0.000000  0.000000  0.000000  -24.494149  3.855345  -3.761410  58.731652  17.650231  2.873422  45.794677  27.486682  0.379604  11.595957  84.916617
0.565657  0.000000  0.000000  0.000000  -24.383287  3.841984  -3.588897  58.838363  18.081107  2.689956  45.675932  29.486362  -0.866521  11.442363  85.031558
0.593939  0.000000  0.000000  0.000000  -24.181015  3.863904  -3.361346  58.871436  18.493201  2.444180  45.586273  31.512317  -2.198131  11.310842  85.207754
0.622222  0.000000  0.000000  0.000000  -23.884039  3.922118  -3.077619  58.822327  18.880828  2.132276  45.552266  33.537672  -3.645936  11.191234  85.499707
0.650505  0.000000  0.000000  0.000000  -23.524084  4.004891  -2.740348  58.719640  19.251028  1.777132  45.541927  35.540360  -5.152578  11.079727  85.864388
0.678788  0.000000  0.000000  0.000000  -23.138287  4.098514  -2.352537  58.597924  19.612632  1.405586  45.514221  37.499054  -6.647079  10.973491  86.243688
0.707071  0.000000  0.000000  0.000000  -22.763786  4.189282  -1.916465  58.492008  19.973796  1.044259  45.428111  39.392427  -8.058463  10.869694  86.579497
0.735354  0.000000  0.000000  0.000000  -22.437720  4.263488  -1.433496  58.437040  20.341748  0.719591  45.242559  41.199156  -9.315754  10.765508  86.813707
0.763636  0.000000  0.000000  0.000000  -22.189841  4.310731  -0.904679  58.460023  20.719213  0.453614  44.926381  42.903734  -10.363255  10.659060  86.902310
0.791919  0.000000  0.000000  0.000000  -22.015299  4.336093  -0.331247  58.548793  21.090071  0.247265  44.494557  44.517926  -11.216867  10.552967  86.867370
0.820202  0.000000  0.000000  0.000000  -21.899119  4.349189  0.284515  58.679326  21.433626  0.095705  43.975575  46.061479  -11.913443  10.451161  86.750285
0.848485  0.000000  0.000000  0.000000  -21.826322  4.359636  0.939515  58.827150  21.729996  -0.005554  43.397924  47.554138  -12.489836  10.357573  86.592455
0.876768  0.000000  0.000000  0.000000  -21.781934  4.377047  1.631189  58.967578  21.959034  -0.061408  42.790094  49.015652  -12.982902  10.276135  86.435280
0.905051  0.000000  0.000000  0.000000  -21.752053  4.410125  2.357487  59.077845  22.102237  -0.076657  42.178321  50.463299  -13.426581  10.210565  86.314613
0.933333  0.000000  0.000000  0.000000  -21.732587  4.459260  3.116480  59.154217  22.157810  -0.050992  41.568356  51.891922  -13.828327  10.162645  86.215842
0.961616  0.000000  0.000000  0.000000  -21.724677  4.520405  3.907704  59.203464  22.131585  0.017939  40.955009  53.284388  -14.181448  10.133120  86.097419
0.989899  0.000000  0.000000  0.000000  -21.729513  4.589471  4.734399  59.233190  22.026244  0.130540  40.332992  54.623451  -14.479124  10.122729  85.917542
1.018182  0.000000  0.000000  0.000000  -21.748285  4.662369  5.595253  59.250020  21.848311  0.289860  39.697012  55.891863  -14.714531  10.132209  85.634410
1.046465  0.000000  0.000000  0.000000  -21.782154  4.735074  6.485077  59.259507  21.607552  0.500859  39.042385  57.072953  -14.881303  10.162082  85.208501
1.074747  0.000000  0.000000  0.000000  -21.831686  4.804846  7.411045  59.267367  21.303529  0.751911  38.376723  58.161718  -14.982368  10.208502  84.646778
1.103030  0.000000  0.000000  0.000000  -21.896889  4.870145  8.360825  59.273011  20.952967  1.033017  37.719127  59.164057  -15.029330  10.263544  83.999605
1.131313  0.000000  0.000000  0.000000  -21.977751  4.929478  9.325344  59.276674  20.569810  1.331958  37.089136  60.086287  -15.034125  10.319126  83.319007
1.159596  0.000000  0.000000  0.000000  -22.074259  4.981349  10.295209  59.278779  20.168276  1.636622  36.506289  60.934721  -15.008690  10.367166  82.657008
1.187879  0.000000  0.000000  0.000000  -22.186458  5.024244  11.259457  59.279839  19.763904  1.935735  35.989914  61.715646  -14.964865  10.399650  82.065335
1.216162  0.000000  0.000000  0.000000  -22.318241  5.055095  12.204552  59.286024  19.372831  2.223223  35.544846  62.433255  -14.907953  10.413165  81.575215
1.244444  0.000000  0.000000  0.000000  -22.479751  5.068318  13.109475  59.311700  19.014780  2.503754  35.152374  63.088347  -14.832631  10.411780  81.184571
1.272727  0.000000  0.000000  0.000000  -22.681707  5.058098  13.962980  59.373764  18.700427  2.777969  34.791634  63.681410  -14.732605  10.400244  80.888278
1.301010  0.000000  0.000000  0.000000  -22.934827  5.018621  14.739742  59.486630  18.452360  3.054368  34.441757  64.212930  -14.601579  10.383310  80.681211
1.329293  0.000000  0.000000  0.000000  -23.249818  4.944076  15.421363  59.666066  18.287398  3.337237  34.081887  64.683396  -14.433264  10.365727  80.558240
1.357576  0.000000  0.000000  0.000000  -23.626477  4.833508  15.993126  59.916767  18.215193  3.627131  33.701121  65.093323  -14.225973  10.350696  80.510054
1.385859  0.000000  0.000000  0.000000  -24.032667  4.700172  16.454360  60.210829  18.220300  3.914851  33.317683  65.443319  -13.991501  10.336880  80.515109
1.414141  0.000000  0.000000  0.000000  -24.430440  4.559906  16.818393  60.515940  18.272484  4.184237  32.955097  65.734004  -13.744093  10.322120  80.549635
1.442424  0.000000  0.000000  0.000000  -24.781853  4.428551  17.094669  60.798595  18.344086  4.423007  32.636889  65.966001  -13.497993  10.304253  80.589864
1.470707  0.000000  0.000000  0.000000  -25.048957  4.321945  17.298110  61.025646  18.401768  4.618132  32.386583  66.139931  -13.267449  10.281120  80.612024
1.498990  0.000000  0.000000  0.000000  -25.200653  4.253158  17.447888  61.170328  18.411471  4.755828  32.224635  66.255390  -13.065919  10.251293  80.595799
1.527273  0.000000  0.000000  0.000000  -25.243460  4.220030  17.532520  61.234137  18.385952  4.837505  32.154653  66.306335  -12.902549  10.217372  80.539853
1.555556  0.000000  0.000000  0.000000  -25.196757  4.215200  17.540747  61.230190  18.345034  4.863260  32.174479  66.284797  -12.785009  10.183334  80.449335
